<svg width="47" height="45" viewBox="0 0 47 45" fill="none" xmlns="http://www.w3.org/2000/svg">
<mask id="mask0_32_11" style="mask-type:alpha" maskUnits="userSpaceOnUse" x="0" y="0" width="47" height="45">
<path d="M6.67107e-07 40L47 40L47 45L4.4855e-07 45L6.67107e-07 40Z" fill="#212529"/>
<path d="M23.9849 30.208C21.7449 30.208 19.8889 29.776 18.4169 28.912C16.9449 28.048 15.8409 26.864 15.1049 25.36C14.3689 23.824 14.0009 22.08 14.0009 20.128C13.9689 17.184 14.7849 14.768 16.4489 12.88C18.1449 10.96 20.6569 10 23.9849 10C27.2169 10 29.6649 10.928 31.3289 12.784C33.0249 14.64 33.8729 17.088 33.8729 20.128C33.8729 22.016 33.5209 23.728 32.8169 25.264C32.1129 26.8 31.0249 28.016 29.5529 28.912C28.0809 29.776 26.2249 30.208 23.9849 30.208ZM23.9849 26.08C25.3929 26.08 26.4649 25.776 27.2009 25.168C27.9689 24.56 28.4809 23.792 28.7369 22.864C28.9929 21.904 29.1209 20.944 29.1209 19.984C29.1209 18.992 28.9929 18.016 28.7369 17.056C28.4809 16.096 27.9689 15.312 27.2009 14.704C26.4649 14.096 25.3929 13.792 23.9849 13.792C22.5449 13.792 21.4409 14.112 20.6729 14.752C19.9369 15.36 19.4249 16.144 19.1369 17.104C18.8809 18.032 18.7529 18.992 18.7529 19.984C18.7529 20.944 18.8809 21.904 19.1369 22.864C19.4249 23.792 19.9369 24.56 20.6729 25.168C21.4409 25.776 22.5449 26.08 23.9849 26.08Z" fill="#212529"/>
<path d="M43.0667 8C41.4222 8 40.3333 7.60656 39.8 6.81967C39.2667 6.03279 39 5.07104 39 3.93442C39 2.88524 39.2667 1.96721 39.8 1.18033C40.3778 0.39344 41.4667 0 43.0667 0C44.5778 0 45.6 0.39344 46.1333 1.18033C46.7111 1.96721 47 2.88524 47 3.93442C47 5.07104 46.7111 6.03279 46.1333 6.81967C45.6 7.60656 44.5778 8 43.0667 8Z" fill="#212529"/>
</mask>
<g mask="url(#mask0_32_11)">
<rect x="-16" y="-20" width="80" height="80" fill="url(#paint0_linear_32_11)"/>
</g>
<defs>
<linearGradient id="paint0_linear_32_11" x1="-16" y1="20" x2="64" y2="20" gradientUnits="userSpaceOnUse">
<stop stop-color="#FBC2EB"/>
<stop offset="1" stop-color="#A6C1EE"/>
</linearGradient>
</defs>
</svg>
